<?xml version="1.0" encoding="UTF-8" standalone="no"?>
<!-- Created with Inkscape (http://www.inkscape.org/) -->

<svg
   xmlns:dc="http://purl.org/dc/elements/1.1/"
   xmlns:cc="http://creativecommons.org/ns#"
   xmlns:rdf="http://www.w3.org/1999/02/22-rdf-syntax-ns#"
   xmlns:svg="http://www.w3.org/2000/svg"
   xmlns="http://www.w3.org/2000/svg"
   xmlns:sodipodi="http://sodipodi.sourceforge.net/DTD/sodipodi-0.dtd"
   xmlns:inkscape="http://www.inkscape.org/namespaces/inkscape"
   id="svg3443"
   version="1.1"
   inkscape:version="0.91 r13725"
   xml:space="preserve"
   width="2647.1785"
   height="614.2594"
   viewBox="0 0 2647.1785 614.2594"
   sodipodi:docname="solderbyte_logo.svg"><metadata
     id="metadata3449"><rdf:RDF><cc:Work
         rdf:about=""><dc:format>image/svg+xml</dc:format><dc:type
           rdf:resource="http://purl.org/dc/dcmitype/StillImage" /><dc:title></dc:title></cc:Work></rdf:RDF></metadata><defs
     id="defs3447"><clipPath
       clipPathUnits="userSpaceOnUse"
       id="clipPath3457"><path
         d="m 0,2500 2500,0 L 2500,0 0,0 0,2500 Z"
         id="path3459"
         inkscape:connector-curvature="0" /></clipPath><clipPath
       clipPathUnits="userSpaceOnUse"
       id="clipPath3517"><path
         d="m 0,2500 2500,0 L 2500,0 0,0 0,2500 Z"
         id="path3519"
         inkscape:connector-curvature="0" /></clipPath><clipPath
       clipPathUnits="userSpaceOnUse"
       id="clipPath3581"><path
         d="m 0,2500 2500,0 L 2500,0 0,0 0,2500 Z"
         id="path3583"
         inkscape:connector-curvature="0" /></clipPath><clipPath
       clipPathUnits="userSpaceOnUse"
       id="clipPath3637"><path
         d="m 0,2500 2500,0 L 2500,0 0,0 0,2500 Z"
         id="path3639"
         inkscape:connector-curvature="0" /></clipPath><clipPath
       clipPathUnits="userSpaceOnUse"
       id="clipPath3693"><path
         d="m 0,2500 2500,0 L 2500,0 0,0 0,2500 Z"
         id="path3695"
         inkscape:connector-curvature="0" /></clipPath><clipPath
       clipPathUnits="userSpaceOnUse"
       id="clipPath3749"><path
         d="m 0,2500 2500,0 L 2500,0 0,0 0,2500 Z"
         id="path3751"
         inkscape:connector-curvature="0" /></clipPath><clipPath
       clipPathUnits="userSpaceOnUse"
       id="clipPath3857"><path
         d="m 0,2500 2500,0 L 2500,0 0,0 0,2500 Z"
         id="path3859"
         inkscape:connector-curvature="0" /></clipPath></defs><sodipodi:namedview
     pagecolor="#ffffff"
     bordercolor="#666666"
     borderopacity="1"
     objecttolerance="10"
     gridtolerance="10"
     guidetolerance="10"
     inkscape:pageopacity="0"
     inkscape:pageshadow="2"
     inkscape:window-width="1450"
     inkscape:window-height="856"
     id="namedview3445"
     showgrid="false"
     inkscape:zoom="0.22627417"
     inkscape:cx="1701.5362"
     inkscape:cy="365.08205"
     inkscape:window-x="126"
     inkscape:window-y="28"
     inkscape:window-maximized="0"
     inkscape:current-layer="g3451"
     fit-margin-top="0"
     fit-margin-left="0"
     fit-margin-right="0"
     fit-margin-bottom="0" /><g
     id="g3451"
     inkscape:groupmode="layer"
     inkscape:label="solderbyte_logo_by_irianwhitefox-d9mcim9"
     transform="matrix(1.25,0,0,-1.25,-223.88408,1906.3503)"><g
       id="g3513"
       transform="translate(-12.021139,29.376602)"><g
         id="g3515"
         clip-path="url(#clipPath3517)"><g
           id="g3521"
           transform="translate(191.1284,1351.2549)"><path
             d="m 0,0 c 0,13.921 9.866,31.006 21.926,37.964 l 175.531,101.267 c 12.063,6.957 31.794,6.957 43.854,0 L 416.842,37.964 C 428.902,31.006 438.771,13.921 438.771,0 l 0,-202.51 c 0,-13.923 -9.869,-31.006 -21.929,-37.964 L 241.311,-341.741 c -12.06,-6.957 -31.791,-6.957 -43.854,0 L 21.926,-240.474 C 9.866,-233.516 0,-216.433 0,-202.51 L 0,0 Z"
             style="fill:#333333;fill-opacity:1;fill-rule:nonzero;stroke:none"
             id="path3523"
             inkscape:connector-curvature="0" /></g><g
           id="g3525"
           transform="translate(789.7695,1267.2344)"><path
             d="m 0,0 c -12.108,3.026 -27.177,6.793 -34.357,15.455 -8.857,10.402 -7.471,31.639 2.656,41.28 6.335,5.947 18.847,9.786 31.886,9.786 11.433,0 21.211,-2.986 26.16,-7.984 2.532,-2.556 3.744,-5.578 3.709,-9.238 -0.038,-3.701 2.911,-6.739 6.613,-6.816 l 14.452,-0.291 c 1.821,-0.059 3.553,0.654 4.845,1.912 1.295,1.259 2.03,2.986 2.044,4.794 C 58.077,59.6 54.191,69.211 46.76,76.693 36.131,87.392 18.562,93.529 -1.445,93.529 c -19.912,0 -38.36,-6.19 -49.312,-16.537 -21.19,-19.822 -22.935,-59.894 -3.472,-80.957 11.823,-12.498 30.562,-17.983 47.18,-22.136 30.611,-7.743 45.395,-21.84 45.196,-43 -0.223,-9.246 -4.071,-17.196 -11.12,-22.988 -7.755,-6.367 -17.641,-9.598 -29.378,-9.598 -6.665,0 -13.79,1.039 -21.11,3.067 -8.014,2.319 -16.364,9.581 -16.81,18.977 -0.17,3.547 -3.058,6.356 -6.603,6.428 l -14.163,0.29 c -1.776,0.053 -3.531,-0.641 -4.823,-1.888 -1.292,-1.246 -2.037,-2.958 -2.062,-4.75 -0.317,-19.54 12.613,-36.201 33.854,-43.525 9.9,-3.213 20.95,-4.914 31.947,-4.91 18.997,0 35.685,5.154 47.027,14.548 13.364,11.254 20.889,26.902 21.192,44.136 C 66.442,-22.86 30.97,-7.873 0,0"
             style="fill:#333333;fill-opacity:1;fill-rule:nonzero;stroke:none"
             id="path3527"
             inkscape:connector-curvature="0" /></g><g
           id="g3529"
           transform="translate(994.1035,1315.0332)"><path
             d="m 0,0 -0.289,-127.471 c 0,-3.193 -0.23,-4.482 -0.303,-4.816 -0.069,-0.163 -0.136,-0.329 -0.194,-0.5 -2.86,-8.289 -19.259,-14.309 -38.997,-14.309 -19.732,0 -36.135,6.02 -38.997,14.309 -0.056,0.168 -0.122,0.337 -0.188,0.497 -0.077,0.334 -0.31,1.626 -0.31,4.833 l -0.285,127.445 c 0,12.227 20.494,18.826 39.784,18.826 C -20.494,18.814 0,12.215 0,0 m -40.357,45.539 c -32.624,0 -67.501,-14.256 -67.501,-45.551 l 0,-128.902 c 0,-31.744 34.877,-46.204 67.501,-46.204 32.623,0 67.503,14.46 67.503,46.204 l 0,128.902 c 0,31.295 -34.88,45.551 -67.503,45.551"
             style="fill:#333333;fill-opacity:1;fill-rule:nonzero;stroke:none"
             id="path3531"
             inkscape:connector-curvature="0" /></g><g
           id="g3533"
           transform="translate(1163.2861,1170.0908)"><path
             d="m 0,0 -41.908,0 c -5.582,0 -32.624,1.578 -32.624,22.386 l 0,158.963 c 0,3.727 -3.821,5.972 -7.55,5.972 l -14.737,0 c -3.731,0 -6.402,-2.245 -6.402,-5.972 l 0,-158.963 c 0,-30.907 23.278,-49.387 61.313,-49.387 l 41.908,0 c 3.729,0 6.471,2.307 6.471,6.033 l 0,14.741 C 6.471,-2.499 3.729,0 0,0"
             style="fill:#333333;fill-opacity:1;fill-rule:nonzero;stroke:none"
             id="path3535"
             inkscape:connector-curvature="0" /></g><g
           id="g3537"
           transform="translate(1228.8232,1330.4102)"><path
             d="m 0,0 47.759,0 c 10.948,0 31.401,-5.168 31.401,-17.759 0,-4.473 0.031,-11.414 0.063,-19.866 0.125,-30.254 0.418,-101.089 -0.941,-108.766 -3.558,-10.033 -21.194,-13.928 -32.258,-13.928 L 0,-160.319 0,0 Z m 48.048,28.689 -70.232,0 c -3.726,0 -6.504,-3.643 -6.504,-7.371 l 0,-202.605 c 0,-3.727 2.778,-6.033 6.504,-6.033 l 68.208,0 c 29.563,0 61.981,13.694 61.981,45.34 l 0,124.281 c 0,30.047 -30.461,46.388 -59.957,46.388"
             style="fill:#333333;fill-opacity:1;fill-rule:nonzero;stroke:none"
             id="path3539"
             inkscape:connector-curvature="0" /></g><g
           id="g3541"
           transform="translate(1488.7275,1359.0996)"><path
             d="m 0,0 -107.515,0 c -3.73,0 -7.257,-3.644 -7.257,-7.371 l 0,-163.586 c 0,-14.788 7.393,-26.991 20.902,-35.293 10.283,-6.319 24.272,-9.652 38.317,-9.83 0.62,-0.188 1.404,0.07 2.083,0.07 l 53.47,0 c 3.726,0 6.731,2.307 6.731,6.033 l 0,14.742 c 0,3.727 -3.005,6.226 -6.731,6.226 l -53.47,0 c -13.62,0 -29.003,4.944 -32.025,13.807 -1.32,5.019 -0.985,39.747 -0.878,51.181 0.004,0.304 0.004,0.828 0.007,0.828 l 86.366,0 c 3.726,0 6.731,3.42 6.731,7.148 l 0,14.74 c 0,3.729 -3.005,6.8 -6.731,6.8 l -86.084,0 0,65.816 86.084,0 c 3.726,0 6.731,3.137 6.731,6.866 l 0,14.452 C 6.731,-3.644 3.726,0 0,0"
             style="fill:#333333;fill-opacity:1;fill-rule:nonzero;stroke:none"
             id="path3543"
             inkscape:connector-curvature="0" /></g><g
           id="g3545"
           transform="translate(1559.5889,1332.0977)"><path
             d="m 0,0 34.055,0 c 11.349,0 31.76,-5.773 31.76,-19.387 l 0,-48.267 c 0,-17.599 -29.468,-18.412 -32.919,-18.412 L 0,-86.066 0,0 Z m 34.055,25.314 -54.337,0 c -3.727,0 -6.721,-2.245 -6.721,-5.972 l 0,-202.317 c 0,-3.726 2.994,-6.033 6.721,-6.033 l 14.16,0 c 3.726,0 6.122,2.307 6.122,6.033 l 0,69.908 32.896,0 c 8.748,0 32.919,-2.687 32.919,-18.172 l 0,-51.736 c 0,-3.726 3.817,-6.033 7.543,-6.033 l 14.453,0 c 3.729,0 6.693,2.307 6.693,6.033 l 0,51.736 c 0,12.894 -6.554,24.318 -17.287,31.505 10.545,7.287 17.287,19.129 17.287,32.08 l 0,48.267 c 0,33.532 -31.2,44.701 -60.449,44.701"
             style="fill:#333333;fill-opacity:1;fill-rule:nonzero;stroke:none"
             id="path3547"
             inkscape:connector-curvature="0" /></g><g
           id="g3549"
           transform="translate(1794.1611,1281.7832)"><path
             d="m 0,0 c 0,-4.472 -1.811,-7.96 -6.387,-10.662 l 0.046,0.191 c -5.607,-3.531 -13.137,-5.03 -22.786,-5.03 l -46.815,0 0,64.128 47.104,0 c 8.919,0 16.611,-2.004 22.538,-5.562 C -3.238,41.319 0,38.073 0,32.951 L 0,0 Z m -28.838,-111.692 -47.104,0 0,67.503 47.389,0 c 10.754,0 20.238,-2.211 26.704,-6.365 l -0.09,-0.129 c 6.006,-3.468 8.688,-7.88 8.688,-13.191 l 0,-27.745 c 0,-5.315 -2.682,-9.883 -8.817,-13.422 -6.84,-4.154 -16.369,-6.651 -26.77,-6.651 m 45.122,82.911 c 7.944,7.347 12.404,17.06 12.404,28.205 l 0,33.679 c 0,14.333 -7.626,26.022 -20.601,33.586 -10.127,6.016 -23.215,8.94 -36.925,8.94 l -68.79,0 c -3.723,0 -6.742,-2.628 -6.748,-6.353 l -0.289,-202.121 c -0.004,-1.792 0.706,-3.057 1.975,-4.323 1.263,-1.269 2.984,-1.525 4.773,-1.525 l 69.079,0 c 15.765,0 30.712,3.378 41.776,10.136 14.62,8.775 22.5,21.314 22.5,36.938 l 0,27.745 c 0,14.368 -6.728,26.425 -19.154,35.093"
             style="fill:#00add2;fill-opacity:1;fill-rule:nonzero;stroke:none"
             id="path3551"
             inkscape:connector-curvature="0" /></g><g
           id="g3553"
           transform="translate(1987.874,1357.4121)"><path
             d="m 0,0 -14.741,0 c -3.727,0 -6.84,-2.245 -6.84,-5.973 l 0,-54.336 c 0,-5.606 -1.201,-7.703 -5.6,-12.103 l -32.09,-33.615 -32.468,33.727 c -4.29,4.288 -5.784,6.385 -5.784,11.991 l 0,54.336 c 0,3.728 -2.511,5.973 -6.238,5.973 l -14.74,0 c -3.727,0 -6.021,-2.245 -6.021,-5.973 l 0,-54.049 c 0,-12.869 3.053,-21.869 12.16,-30.974 l 38.467,-40.818 0,-76.188 c 0,-3.727 3.692,-6.32 7.418,-6.32 l 14.453,0 c 3.726,0 6.818,2.593 6.818,6.32 l 0,76.188 39.209,40.717 c 9.205,9.206 13.105,18.206 13.105,31.075 l 0,54.049 C 7.108,-2.245 3.727,0 0,0"
             style="fill:#00add2;fill-opacity:1;fill-rule:nonzero;stroke:none"
             id="path3555"
             inkscape:connector-curvature="0" /></g><g
           id="g3557"
           transform="translate(2150.8818,1357.4121)"><path
             d="m 0,0 -124.571,0 c -3.727,0 -6.015,-2.245 -6.015,-5.973 l 0,-12.716 c 0,-3.728 2.288,-6.625 6.015,-6.625 l 48.144,0 -0.556,-182.891 c -0.004,-1.794 0.703,-3.191 1.967,-4.46 1.271,-1.272 2.992,-1.657 4.785,-1.657 l 14.738,0 c 3.719,0 6.738,2.711 6.752,6.433 l 0.557,182.575 48.184,0 c 3.729,0 6.108,2.897 6.108,6.625 l 0,12.716 C 6.108,-2.245 3.729,0 0,0"
             style="fill:#00add2;fill-opacity:1;fill-rule:nonzero;stroke:none"
             id="path3559"
             inkscape:connector-curvature="0" /></g><g
           id="g3561"
           transform="translate(2302.6201,1330.4102)"><path
             d="m 0,0 c 3.727,0 6.251,3.138 6.251,6.866 l 0,14.452 c 0,3.728 -2.524,7.371 -6.251,7.371 l -107.518,0 c -3.729,0 -6.048,-3.643 -6.048,-7.371 l 0,-163.586 c 0,-14.788 6.79,-26.991 20.298,-35.293 10.285,-6.319 23.97,-9.652 38.015,-9.83 0.62,-0.187 1.101,0.071 1.783,0.071 l 53.47,0 c 3.727,0 6.251,2.306 6.251,6.033 l 0,14.741 c 0,3.728 -2.524,6.227 -6.251,6.227 l -53.47,0 c -13.623,0 -29.006,4.943 -32.024,13.806 -1.32,5.02 -0.989,39.758 -0.882,51.191 0.004,0.3 0.008,0.818 0.008,0.818 l 86.368,0 c 3.727,0 6.251,3.42 6.251,7.149 l 0,14.74 c 0,3.728 -2.524,6.8 -6.251,6.8 l -86.563,0 0,65.815 L 0,0 Z"
             style="fill:#00add2;fill-opacity:1;fill-rule:nonzero;stroke:none"
             id="path3563"
             inkscape:connector-curvature="0" /></g><g
           id="g3565"
           transform="translate(362.8037,1344.4834)"><path
             d="m 0,0 c 0,26.2 21.483,47.511 47.665,47.511 26.189,0 47.665,-21.306 47.665,-47.489 l 0,-88.017 -95.33,0 L 0,0 Z m -42.374,-97.928 c 0,-5.481 4.45,-9.926 9.932,-9.926 l 160.305,0 c 5.485,0 9.929,4.445 9.929,9.926 0,5.489 -4.444,9.933 -9.929,9.933 l -12.67,0 0,88.017 c 0,37.139 -30.387,67.342 -67.528,67.342 C 10.524,67.364 -19.863,37.15 -19.863,0 l 0,-87.995 -12.579,0 c -5.482,0 -9.932,-4.444 -9.932,-9.933"
             style="fill:#ffffff;fill-opacity:1;fill-rule:nonzero;stroke:none"
             id="path3567"
             inkscape:connector-curvature="0" /></g><g
           id="g3569"
           transform="translate(490.667,1198.3984)"><path
             d="m 0,0 c 5.484,0 9.929,4.443 9.929,9.932 0,5.476 -4.445,9.92 -9.929,9.92 l -160.306,0 c -5.481,0 -9.931,-4.444 -9.931,-9.92 0,-5.489 4.45,-9.932 9.931,-9.932 l 48.828,0 0,-100.32 c 0,-5.48 4.44,-9.928 9.928,-9.928 5.486,0 9.936,4.448 9.936,9.928 l 0,100.32 22.839,0 0,-54.855 c 0,-5.491 4.439,-9.935 9.928,-9.935 5.485,0 9.928,4.444 9.928,9.935 L -48.919,0 0,0 Z"
             style="fill:#ffffff;fill-opacity:1;fill-rule:nonzero;stroke:none"
             id="path3571"
             inkscape:connector-curvature="0" /></g><g
           id="g3573"
           transform="translate(410.5137,1375.5518)"><path
             d="m 0,0 c -5.484,0 -9.928,-4.447 -9.928,-9.934 0,-5.477 4.444,-9.928 9.928,-9.928 7.721,0 13.996,-6.249 13.996,-13.944 0,-5.486 4.451,-9.93 9.929,-9.93 5.488,0 9.932,4.444 9.932,9.93 C 33.857,-15.164 18.67,0 0,0"
             style="fill:#ffffff;fill-opacity:1;fill-rule:nonzero;stroke:none"
             id="path3575"
             inkscape:connector-curvature="0" /></g></g></g></g></svg>