<?xml version="1.0" encoding="UTF-8" standalone="no"?>
<!-- Created with Inkscape (http://www.inkscape.org/) -->

<svg
   xmlns:dc="http://purl.org/dc/elements/1.1/"
   xmlns:cc="http://creativecommons.org/ns#"
   xmlns:rdf="http://www.w3.org/1999/02/22-rdf-syntax-ns#"
   xmlns:svg="http://www.w3.org/2000/svg"
   xmlns="http://www.w3.org/2000/svg"
   xmlns:sodipodi="http://sodipodi.sourceforge.net/DTD/sodipodi-0.dtd"
   xmlns:inkscape="http://www.inkscape.org/namespaces/inkscape"
   id="svg3443"
   version="1.1"
   inkscape:version="0.91 r13725"
   xml:space="preserve"
   width="1972.1163"
   height="1637.4314"
   viewBox="0 0 1972.1163 1637.4314"
   sodipodi:docname="solderbyte_brain.svg"><metadata
     id="metadata3449"><rdf:RDF><cc:Work
         rdf:about=""><dc:format>image/svg+xml</dc:format><dc:type
           rdf:resource="http://purl.org/dc/dcmitype/StillImage" /><dc:title></dc:title></cc:Work></rdf:RDF></metadata><defs
     id="defs3447"><clipPath
       clipPathUnits="userSpaceOnUse"
       id="clipPath3457"><path
         d="m 0,2500 2500,0 L 2500,0 0,0 0,2500 Z"
         id="path3459"
         inkscape:connector-curvature="0" /></clipPath><clipPath
       clipPathUnits="userSpaceOnUse"
       id="clipPath3517"><path
         d="m 0,2500 2500,0 L 2500,0 0,0 0,2500 Z"
         id="path3519"
         inkscape:connector-curvature="0" /></clipPath><clipPath
       clipPathUnits="userSpaceOnUse"
       id="clipPath3581"><path
         d="m 0,2500 2500,0 L 2500,0 0,0 0,2500 Z"
         id="path3583"
         inkscape:connector-curvature="0" /></clipPath><clipPath
       clipPathUnits="userSpaceOnUse"
       id="clipPath3637"><path
         d="m 0,2500 2500,0 L 2500,0 0,0 0,2500 Z"
         id="path3639"
         inkscape:connector-curvature="0" /></clipPath><clipPath
       clipPathUnits="userSpaceOnUse"
       id="clipPath3693"><path
         d="m 0,2500 2500,0 L 2500,0 0,0 0,2500 Z"
         id="path3695"
         inkscape:connector-curvature="0" /></clipPath><clipPath
       clipPathUnits="userSpaceOnUse"
       id="clipPath3749"><path
         d="m 0,2500 2500,0 L 2500,0 0,0 0,2500 Z"
         id="path3751"
         inkscape:connector-curvature="0" /></clipPath><clipPath
       clipPathUnits="userSpaceOnUse"
       id="clipPath3857"><path
         d="m 0,2500 2500,0 L 2500,0 0,0 0,2500 Z"
         id="path3859"
         inkscape:connector-curvature="0" /></clipPath></defs><sodipodi:namedview
     pagecolor="#ffffff"
     bordercolor="#666666"
     borderopacity="1"
     objecttolerance="10"
     gridtolerance="10"
     guidetolerance="10"
     inkscape:pageopacity="0"
     inkscape:pageshadow="2"
     inkscape:window-width="1450"
     inkscape:window-height="856"
     id="namedview3445"
     showgrid="false"
     inkscape:zoom="0.25632"
     inkscape:cx="963.0671"
     inkscape:cy="935.22292"
     inkscape:window-x="0"
     inkscape:window-y="0"
     inkscape:window-maximized="0"
     inkscape:current-layer="g3451"
     fit-margin-top="0"
     fit-margin-left="0"
     fit-margin-right="0"
     fit-margin-bottom="0" /><g
     id="g3451"
     inkscape:groupmode="layer"
     inkscape:label="solderbyte_logo_by_irianwhitefox-d9mcim9"
     transform="matrix(1.25,0,0,-1.25,-356.83903,2471.3474)"><g
       id="g3745"
       transform="translate(-175.68181,72.105482)"><g
         id="g3747"
         clip-path="url(#clipPath3749)"><g
           id="g3753"
           transform="translate(2037.7363,1306.1768)"><path
             d="m 0,0 -15.863,125.479 c -9.246,73.254 -73.506,126.348 -145.973,123.086 -0.869,0.797 -1.764,1.574 -2.656,2.359 6.568,30.27 2.99,61.717 -10.514,90.139 -16.027,33.724 -44.195,59.282 -79.322,71.99 l -296.733,107.313 c -17.911,6.471 -37.076,9.235 -56.079,8.136 -13.885,12.998 -30.413,23.15 -48.395,29.655 l -89.002,32.184 c -34.447,12.465 -71.828,11.105 -105.268,-3.803 -26.364,-11.754 -48.093,-30.942 -62.838,-55.141 l -31.513,11.4 c -34.44,12.447 -71.821,11.087 -105.268,-3.83 -26.555,-11.841 -48.433,-31.248 -63.178,-55.726 -30.91,7.87 -63.36,5.041 -92.756,-8.314 -27.992,-12.713 -50.643,-33.778 -65.195,-60.311 -26.477,1.182 -53.016,-5.13 -76.311,-18.418 -28.999,-16.547 -51.226,-42.977 -62.604,-74.418 -2.99,-8.258 -5.193,-16.759 -6.595,-25.359 -26.47,-16.653 -46.599,-41.55 -57.347,-71.254 -7.538,-20.833 -10.045,-43.014 -7.403,-64.816 -10.82,-12.74 -19.208,-27.223 -25.003,-43.209 -3.173,-8.801 -5.462,-17.877 -6.851,-27.068 -25.575,-16.645 -45.06,-41.134 -55.546,-70.101 -19.598,-54.19 -3.918,-114.558 38.003,-152.452 -7.765,-34.695 -2.112,-71.12 15.892,-101.901 -0.546,-1.365 -1.063,-2.711 -1.551,-4.075 -26.427,-73.05 11.499,-153.97 84.558,-180.398 l 26.915,-9.733 c -4.136,-28.029 0.292,-56.686 13.03,-82.576 16.162,-32.854 44.041,-57.814 78.479,-70.259 l 137.237,-49.629 c 15.473,-5.594 31.584,-8.42 47.901,-8.42 42.305,0 83.392,19.697 109.881,52.715 8.112,10.118 6.497,24.893 -3.614,33.012 -10.124,8.12 -24.888,6.491 -33.008,-3.623 -17.662,-22.002 -45.053,-35.153 -73.259,-35.153 -10.861,0 -21.602,1.896 -31.925,5.627 l -137.243,49.629 c -47.575,17.198 -72.883,68.423 -57.606,116.618 3.804,12.002 -2.551,24.882 -14.399,29.166 l -46.413,16.787 c -48.702,17.619 -73.987,71.559 -56.389,120.267 1.404,3.84 3.062,7.637 4.953,11.295 4.068,7.889 3.338,17.393 -1.871,24.58 -18.258,25.11 -22.962,57.543 -12.583,86.731 3.53,9.944 0.01,21.006 -8.614,27.076 -34.518,24.286 -48.583,69.003 -34.206,108.742 7.971,22.035 23.742,40.177 44.444,51.098 7.284,3.846 12.022,11.216 12.483,19.433 0.524,9.07 2.366,18.032 5.477,26.641 4.817,13.324 12.334,25.078 22.346,34.935 5.718,5.628 8.161,13.79 6.482,21.638 -3.655,17.116 -2.423,34.907 3.557,51.453 8.153,22.527 24.402,40.906 45.762,51.764 7.354,3.737 12.215,11.076 12.78,19.319 0.605,8.67 2.416,17.257 5.406,25.532 15.603,43.147 59.658,68.61 104.738,60.534 11.024,-1.969 21.922,4.137 26.008,14.573 18.678,47.768 71.113,71.51 119.381,54.048 l 6.478,-2.331 c 11.845,-4.283 24.968,1.552 29.727,13.211 19.08,46.788 71.296,69.992 118.858,52.782 l 51.005,-18.44 c 11.852,-4.289 24.972,1.55 29.735,13.21 19.087,46.811 71.296,70 118.863,52.784 l 89.001,-32.186 c 14.598,-5.289 27.739,-14.135 38.012,-25.62 5.243,-5.876 13.093,-8.722 20.9,-7.573 15.305,2.235 31.062,0.647 45.572,-4.6 l 296.739,-107.308 c 48.141,-17.414 73.598,-70.891 56.744,-119.222 -3.523,-10.103 0.233,-21.308 9.131,-27.253 6.052,-4.053 11.635,-8.805 16.565,-14.129 5.13,-5.527 12.591,-8.273 20.072,-7.352 0.184,0.022 0.388,0.05 0.582,0.076 51.308,6.372 98.267,-30.129 104.756,-81.428 L -46.584,-5.901 c 4.061,-32.207 -9.145,-64.821 -34.503,-85.106 -1.106,-0.888 -2.382,-1.846 -3.884,-2.926 -6.533,-4.697 -10.217,-12.398 -9.733,-20.436 0.743,-12.71 -1.091,-25.286 -5.47,-37.363 -10.594,-29.322 -35.02,-51.418 -65.303,-59.113 -8.601,-2.179 -15.239,-9.034 -17.152,-17.704 -0.878,-4.017 -2.034,-8.014 -3.43,-11.871 -11.427,-31.61 -39.142,-54.827 -72.322,-60.595 -9.056,-1.58 -16.359,-8.293 -18.691,-17.185 -5.468,-20.844 -18.038,-39.315 -35.416,-52.014 l -87.473,-63.934 c -8.02,-5.866 -11.491,-16.148 -8.644,-25.68 5.782,-19.357 5.202,-39.666 -1.693,-58.732 -13.419,-37.096 -48.914,-62.016 -88.328,-62.016 -10.867,0 -21.616,1.895 -31.939,5.628 l -66.505,24.047 c -11.662,4.212 -22.163,10.527 -31.225,18.756 -9.592,8.73 -24.441,8.011 -33.163,-1.584 -8.722,-9.595 -8.015,-24.448 1.579,-33.165 13.623,-12.375 29.375,-21.848 46.839,-28.164 l 66.513,-24.05 c 15.453,-5.59 31.57,-8.418 47.901,-8.418 59.131,0 112.368,37.368 132.49,92.994 8.388,23.217 10.542,47.69 6.404,71.629 l 74.959,54.781 c 22.105,16.164 39.046,38.571 48.679,64.08 43.332,12.285 78.715,44.852 94.19,87.648 0.503,1.385 0.977,2.778 1.43,4.174 39.13,14.186 70.163,44.967 84.466,84.508 5.094,14.1 7.894,28.663 8.355,43.444 16.841,14.56 30.076,33.011 38.442,53.664 C -0.163,-48.305 3.025,-23.884 0,0"
             style="fill:#333333;fill-opacity:1;fill-rule:nonzero;stroke:none"
             id="path3755"
             inkscape:connector-curvature="0" /></g><g
           id="g3757"
           transform="translate(764.7744,835.1553)"><path
             d="m 0,0 137.236,-49.634 c 2.643,-0.943 5.335,-1.396 7.986,-1.396 9.599,0 18.625,5.94 22.082,15.491 4.407,12.196 -1.899,25.663 -14.098,30.065 L 15.964,44.164 C 3.784,48.563 -9.686,42.251 -14.099,30.062 -18.499,17.861 -12.193,4.403 0,0"
             style="fill:#333333;fill-opacity:1;fill-rule:nonzero;stroke:none"
             id="path3759"
             inkscape:connector-curvature="0" /></g><g
           id="g3761"
           transform="translate(856.418,921.7568)"><path
             d="m 0,0 44.607,-16.139 c 2.637,-0.945 5.329,-1.402 7.985,-1.402 9.614,0 18.618,5.944 22.077,15.505 4.407,12.197 -1.899,25.655 -14.1,30.065 L 15.97,44.158 C 3.791,48.569 -9.672,42.263 -14.084,30.066 -18.499,17.873 -12.179,4.407 0,0"
             style="fill:#333333;fill-opacity:1;fill-rule:nonzero;stroke:none"
             id="path3763"
             inkscape:connector-curvature="0" /></g><g
           id="g3765"
           transform="translate(1547.1035,841.6426)"><path
             d="m 0,0 -66.521,24.052 c -12.185,4.41 -25.656,-1.906 -30.063,-14.099 -4.412,-12.194 1.9,-25.648 14.093,-30.052 l 66.513,-24.063 c 2.644,-0.956 5.334,-1.417 7.985,-1.417 9.608,0 18.628,5.954 22.077,15.505 C 18.505,-17.869 12.185,-4.409 0,0"
             style="fill:#333333;fill-opacity:1;fill-rule:nonzero;stroke:none"
             id="path3767"
             inkscape:connector-curvature="0" /></g><g
           id="g3769"
           transform="translate(713.4375,1093.2061)"><path
             d="m 0,0 c 2.635,-0.946 5.335,-1.395 7.991,-1.395 9.601,0 18.613,5.945 22.07,15.496 C 34.475,26.303 28.169,39.753 15.97,44.16 L -60.441,71.8 c -12.196,4.421 -25.656,-1.9 -30.071,-14.092 -4.412,-12.189 1.907,-25.647 14.093,-30.062 L 0,0 Z"
             style="fill:#333333;fill-opacity:1;fill-rule:nonzero;stroke:none"
             id="path3771"
             inkscape:connector-curvature="0" /></g><g
           id="g3773"
           transform="translate(954.7988,1130.2432)"><path
             d="M 0,0 C 9.672,0 18.734,6.026 22.141,15.666 26.457,27.893 20.037,41.302 7.809,45.622 l -352.788,124.502 c -12.235,4.321 -25.642,-2.094 -29.949,-14.326 -4.321,-12.221 2.098,-25.636 14.319,-29.951 L -7.819,1.335 C -5.234,0.436 -2.592,0 0,0"
             style="fill:#333333;fill-opacity:1;fill-rule:nonzero;stroke:none"
             id="path3775"
             inkscape:connector-curvature="0" /></g><g
           id="g3777"
           transform="translate(1453.8008,1188.0781)"><path
             d="m 0,0 301.344,-112.378 c 2.714,-1.013 5.483,-1.487 8.205,-1.487 9.523,0 18.477,5.83 21.998,15.277 4.536,12.148 -1.635,25.67 -13.786,30.207 L 16.408,44.002 C 4.257,48.531 -9.261,42.368 -13.801,30.205 -18.328,18.057 -12.149,4.53 0,0"
             style="fill:#333333;fill-opacity:1;fill-rule:nonzero;stroke:none"
             id="path3779"
             inkscape:connector-curvature="0" /></g><g
           id="g3781"
           transform="translate(1560.9971,1265.6523)"><path
             d="m 0,0 c 2.628,-0.954 5.328,-1.406 7.977,-1.406 9.608,0 18.626,5.95 22.083,15.5 4.408,12.201 -1.898,25.657 -14.098,30.062 l -116.265,42.06 c -12.2,4.403 -25.661,-1.896 -30.067,-14.088 -4.407,-12.197 1.896,-25.669 14.098,-30.072 L 0,0 Z"
             style="fill:#333333;fill-opacity:1;fill-rule:nonzero;stroke:none"
             id="path3783"
             inkscape:connector-curvature="0" /></g><g
           id="g3785"
           transform="translate(1076.2646,1490.8965)"><path
             d="m 0,0 c -12.187,4.417 -25.647,-1.895 -30.054,-14.1 -4.423,-12.182 1.9,-25.651 14.084,-30.062 L 56.8,-70.471 c 2.642,-0.963 5.335,-1.406 7.985,-1.406 9.614,0 18.634,5.94 22.083,15.497 4.406,12.187 -1.897,25.653 -14.09,30.062 L 0,0 Z"
             style="fill:#333333;fill-opacity:1;fill-rule:nonzero;stroke:none"
             id="path3787"
             inkscape:connector-curvature="0" /></g><g
           id="g3789"
           transform="translate(854.8887,1521.0322)"><path
             d="m 0,0 c 2.643,-0.957 5.342,-1.41 7.99,-1.41 9.616,0 18.62,5.94 22.077,15.501 4.415,12.194 -1.891,25.655 -14.091,30.061 L -86.152,81.095 c -12.194,4.406 -25.657,-1.896 -30.071,-14.092 -4.406,-12.197 1.913,-25.656 14.092,-30.068 L 0,0 Z"
             style="fill:#333333;fill-opacity:1;fill-rule:nonzero;stroke:none"
             id="path3791"
             inkscape:connector-curvature="0" /></g><g
           id="g3793"
           transform="translate(1050.7451,1594.9209)"><path
             d="m 0,0 c -4.415,-12.201 1.899,-25.661 14.092,-30.062 l 226.344,-81.869 -31.686,-32.007 c -9.139,-9.211 -9.062,-24.076 0.149,-33.211 4.584,-4.53 10.55,-6.791 16.522,-6.791 6.044,0 12.094,2.329 16.685,6.958 l 57.551,58.117 c 5.633,5.694 7.979,13.866 6.221,21.679 -1.771,7.821 -7.389,14.192 -14.921,16.92 L 30.062,14.092 C 17.875,18.499 4.406,12.196 0,0"
             style="fill:#333333;fill-opacity:1;fill-rule:nonzero;stroke:none"
             id="path3795"
             inkscape:connector-curvature="0" /></g><g
           id="g3797"
           transform="translate(1789.0469,1472.6133)"><path
             d="m 0,0 -189.594,68.553 c -12.185,4.415 -25.647,-1.895 -30.06,-14.094 -4.414,-12.183 1.906,-25.649 14.091,-30.063 L -15.97,-44.152 c 2.637,-0.966 5.322,-1.411 7.98,-1.411 9.613,0 18.625,5.944 22.082,15.487 C 18.499,-17.867 12.193,-4.403 0,0"
             style="fill:#333333;fill-opacity:1;fill-rule:nonzero;stroke:none"
             id="path3799"
             inkscape:connector-curvature="0" /></g><g
           id="g3801"
           transform="translate(1164.4941,1673.5215)"><path
             d="m 0,0 c -4.401,-12.192 1.898,-25.661 14.1,-30.068 l 139.346,-50.401 c 2.635,-0.945 5.335,-1.406 7.986,-1.406 9.605,0 18.617,5.952 22.076,15.507 4.413,12.196 -1.899,25.657 -14.094,30.061 L 30.075,14.099 C 17.883,18.495 4.414,12.197 0,0"
             style="fill:#333333;fill-opacity:1;fill-rule:nonzero;stroke:none"
             id="path3803"
             inkscape:connector-curvature="0" /></g><g
           id="g3805"
           transform="translate(1110.2588,1718.1074)"><path
             d="m 0,0 -56.596,20.457 c -12.2,4.415 -25.655,-1.903 -30.061,-14.094 -4.406,-12.191 1.907,-25.653 14.092,-30.062 l 56.595,-20.465 c 2.643,-0.946 5.342,-1.407 7.992,-1.407 9.613,0 18.62,5.944 22.084,15.503 C 18.519,-17.875 12.2,-4.421 0,0"
             style="fill:#333333;fill-opacity:1;fill-rule:nonzero;stroke:none"
             id="path3807"
             inkscape:connector-curvature="0" /></g><g
           id="g3809"
           transform="translate(1326.293,1709.7764)"><path
             d="m 0,0 c 2.637,-0.958 5.334,-1.411 7.992,-1.411 9.601,0 18.619,5.937 22.078,15.501 4.407,12.187 -1.908,25.661 -14.1,30.07 l -88.988,32.186 c -12.201,4.407 -25.662,-1.898 -30.076,-14.103 -4.406,-12.184 1.9,-25.642 14.1,-30.061 L 0,0 Z"
             style="fill:#333333;fill-opacity:1;fill-rule:nonzero;stroke:none"
             id="path3811"
             inkscape:connector-curvature="0" /></g><g
           id="g3813"
           transform="translate(997.9404,1382.7969)"><path
             d="m 0,0 0,239.5 c 0,9.894 -5.909,18.719 -15.197,22.081 l -84.282,30.528 c -12.202,4.412 -25.584,-1.895 -30,-14.08 -4.413,-12.205 1.646,-25.663 13.833,-30.07 l 68.694,-24.936 0,-189.568 -246.493,89.25 c -12.193,4.425 -25.504,-1.892 -29.919,-14.084 -4.407,-12.195 1.976,-25.655 14.17,-30.072 L -30.919,-22.077 c 2.594,-0.948 5.314,-1.409 7.999,-1.409 4.769,0 9.203,1.457 13.214,4.279 C -3.449,-14.826 0,-7.647 0,0"
             style="fill:#333333;fill-opacity:1;fill-rule:nonzero;stroke:none"
             id="path3815"
             inkscape:connector-curvature="0" /></g><g
           id="g3817"
           transform="translate(646.3486,997.7236)"><path
             d="m 0,0 101.31,-36.641 c 2.614,-0.945 5.312,-1.402 7.976,-1.402 7.461,0 14.673,3.566 19.164,9.914 l 67.535,95.325 c 7.496,10.575 4.987,25.233 -5.59,32.729 -10.578,7.496 -25.243,4.992 -32.733,-5.583 L 100.473,13.6 15.978,44.155 C 3.784,48.566 -9.67,42.269 -14.099,30.06 -18.497,17.875 -12.186,4.41 0,0"
             style="fill:#333333;fill-opacity:1;fill-rule:nonzero;stroke:none"
             id="path3819"
             inkscape:connector-curvature="0" /></g><g
           id="g3821"
           transform="translate(1428.9473,1078.9688)"><path
             d="m 0,0 192.207,-73.672 -64.691,-47.293 -48.682,17.599 c -12.193,4.415 -25.655,-1.902 -30.063,-14.088 -4.406,-12.197 1.9,-25.657 14.101,-30.072 l 60.42,-21.853 c 2.593,-0.93 5.293,-1.4 7.984,-1.4 4.91,0 9.778,1.548 13.859,4.539 l 109.597,80.101 c 6.943,5.073 10.557,13.54 9.416,22.063 -1.134,8.515 -6.844,15.732 -14.871,18.815 L 16.805,43.834 C 4.689,48.487 -8.879,42.43 -13.525,30.332 -18.173,18.221 -12.115,4.645 0,0"
             style="fill:#333333;fill-opacity:1;fill-rule:nonzero;stroke:none"
             id="path3823"
             inkscape:connector-curvature="0" /></g><g
           id="g3825"
           transform="translate(1743.4902,1608.832)"><path
             d="m 0,0 -296.731,107.313 c -7.206,2.603 -15.517,1.533 -21.773,-2.864 -6.27,-4.398 -10.288,-11.569 -10.288,-19.213 l 0,-239.481 c 0,-9.899 6.491,-18.724 15.787,-22.077 l 204.364,-73.865 14.136,-111.237 c 1.105,-8.75 7.049,-16.142 15.338,-19.137 l 176.912,-63.97 c 2.643,-0.955 5.349,-1.412 7.999,-1.412 9.607,0.009 18.626,5.939 22.091,15.507 4.407,12.186 -1.907,25.655 -14.092,30.061 l -163.387,59.082 -14.064,111.248 c -1.112,8.742 -7.312,16.141 -15.593,19.133 l -202.523,73.141 0,189.544 265.556,-95.931 c 12.202,-4.42 25.813,1.899 30.219,14.095 C 18.357,-17.871 12.201,-4.414 0,0"
             style="fill:#333333;fill-opacity:1;fill-rule:nonzero;stroke:none"
             id="path3827"
             inkscape:connector-curvature="0" /></g><g
           id="g3829"
           transform="translate(1749.6328,1342.1592)"><path
             d="m 0,0 c -4.406,-12.201 1.9,-25.655 14.093,-30.062 l 126.261,-45.682 c 2.599,-0.93 5.299,-1.391 7.992,-1.391 5.248,0 10.441,1.765 14.666,5.146 6.383,5.11 9.649,13.16 8.614,21.278 L 155.764,74.771 c -1.616,12.87 -13.369,21.977 -26.23,20.35 C 116.676,93.499 107.557,81.756 109.18,68.882 L 120.24,-18.521 30.062,14.09 C 17.861,18.505 4.407,12.188 0,0"
             style="fill:#333333;fill-opacity:1;fill-rule:nonzero;stroke:none"
             id="path3831"
             inkscape:connector-curvature="0" /></g><g
           id="g3833"
           transform="translate(899.46,1265.4277)"><path
             d="m 0,0 c 2.634,-0.956 5.334,-1.406 7.984,-1.406 9.601,0 18.619,5.948 22.078,15.506 4.413,12.193 -1.894,25.65 -14.092,30.054 L -96.065,84.683 c -12.179,4.404 -25.641,-1.906 -30.056,-14.107 -4.412,-12.188 1.899,-25.643 14.1,-30.057 L 0,0 Z"
             style="fill:#333333;fill-opacity:1;fill-rule:nonzero;stroke:none"
             id="path3835"
             inkscape:connector-curvature="0" /></g><g
           id="g3837"
           transform="translate(693.8535,1339.7949)"><path
             d="m 0,0 c 2.637,-0.96 5.329,-1.413 7.985,-1.413 9.601,0 18.62,5.95 22.083,15.505 4.401,12.193 -1.913,25.651 -14.097,30.066 l -37.43,13.531 C -33.646,62.103 -47.122,55.791 -51.521,43.59 -55.93,31.396 -49.623,17.942 -37.428,13.529 L 0,0 Z"
             style="fill:#333333;fill-opacity:1;fill-rule:nonzero;stroke:none"
             id="path3839"
             inkscape:connector-curvature="0" /></g><g
           id="g3841"
           transform="translate(1089.5068,1201.1055)"><path
             d="m 0,0 c 0,61.942 50.784,112.337 112.7,112.337 61.916,0 112.694,-50.377 112.694,-112.289 l 0,-208.11 L 0,-208.062 0,0 Z m -100.189,-231.539 c 0,-12.965 10.522,-23.472 23.488,-23.472 l 379.022,0 c 12.967,0 23.467,10.507 23.467,23.472 0,12.975 -10.5,23.477 -23.467,23.477 l -29.962,0 0,208.11 c 0,87.811 -71.841,159.234 -159.659,159.234 C 24.891,159.282 -46.96,87.838 -46.96,0 l 0,-208.062 -29.741,0 c -12.966,0 -23.488,-10.502 -23.488,-23.477"
             style="fill:#00add2;fill-opacity:1;fill-rule:nonzero;stroke:none"
             id="path3843"
             inkscape:connector-curvature="0" /></g><g
           id="g3845"
           transform="translate(1391.8281,855.6973)"><path
             d="m 0,0 c 12.967,0 23.467,10.518 23.467,23.479 0,12.96 -10.5,23.474 -23.467,23.474 l -379.022,0 c -12.966,0 -23.489,-10.514 -23.489,-23.474 0,-12.961 10.523,-23.479 23.489,-23.479 l 115.441,0 0,-237.189 c 0,-12.958 10.508,-23.481 23.479,-23.481 12.972,0 23.487,10.523 23.487,23.481 l 0,237.189 54.002,0 0,-129.689 c 0,-12.984 10.508,-23.489 23.471,-23.489 12.974,0 23.48,10.505 23.48,23.489 L -115.662,0 0,0 Z"
             style="fill:#00add2;fill-opacity:1;fill-rule:nonzero;stroke:none"
             id="path3847"
             inkscape:connector-curvature="0" /></g><g
           id="g3849"
           transform="translate(1202.3203,1274.5605)"><path
             d="m 0,0 c -12.972,0 -23.473,-10.514 -23.473,-23.476 0,-12.962 10.501,-23.487 23.473,-23.487 18.244,0 33.094,-14.775 33.094,-32.969 0,-12.965 10.508,-23.473 23.466,-23.473 12.973,0 23.487,10.508 23.487,23.473 C 80.047,-35.85 44.14,0 0,0"
             style="fill:#00add2;fill-opacity:1;fill-rule:nonzero;stroke:none"
             id="path3851"
             inkscape:connector-curvature="0" /></g></g></g></g></svg>